# xmcd
#
# Track frame offsets:
# 150
# 17789
# 39852
# 56946
# 72996
# 83039
# 102262
# 120368
# 137454
# 148714
# 160344
# 174218
# 194940
#
# Disc length: 2832 seconds
#
# Revision: 0
# Processed by: cddbd v1.5.1PL0 Copyright (c) Steve Scherf et al.
# Submitted via: Audion 3.0.2 (http://www.panic.com/audion/)
#
DISCID=b10b0e0d
DTITLE=ThaMusemeant, Jow West, Hundred Year Flood et al. - Dr. Frogville's essential music 
DYEAR=1900
DGENRE=
TTITLE0=Sweet
TTITLE1=South Dakota Hairdo
TTITLE2=Come On
TTITLE3=Poor Boy in Love
TTITLE4=Wedding Dress
TTITLE5=Days Go By
TTITLE6=Back in 15 minutes
TTITLE7=Hello in Free America
TTITLE8=A Beautiful Day
TTITLE9=Young Helplessness in Love
TTITLE10=Politics of the Dead
TTITLE11=Cold Canadian Love
TTITLE12=Been a While
EXTD=
EXTT0=
EXTT1=
EXTT2=
EXTT3=
EXTT4=
EXTT5=
EXTT6=
EXTT7=
EXTT8=
EXTT9=
EXTT10=
EXTT11=
EXTT12=
PLAYORDER=
